<svg width="17" height="16" viewBox="0 0 17 16" fill="none" xmlns="http://www.w3.org/2000/svg">
<path fill-rule="evenodd" clip-rule="evenodd" d="M16.391 5.8322L11.0632 5.05813L8.68147 0.230426C8.61367 0.115117 8.48989 0.0443115 8.35613 0.0443115C8.22236 0.0443115 8.09859 0.115117 8.03079 0.230426L5.64796 5.05704L0.318729 5.8322C0.182025 5.85193 0.0683738 5.94756 0.025552 6.07887C-0.0172697 6.21018 0.0181629 6.35442 0.116955 6.45095L3.97316 10.2092L3.063 15.5155C3.03978 15.6516 3.09572 15.789 3.20735 15.8702C3.31898 15.9513 3.46698 15.9621 3.58921 15.898L8.35486 13.3929L13.1205 15.897C13.2427 15.961 13.3907 15.9502 13.5024 15.8691C13.614 15.7879 13.6699 15.6505 13.6467 15.5145L12.7366 10.2092L16.5928 6.45095C16.6915 6.35447 16.727 6.2103 16.6843 6.07901C16.6415 5.94771 16.528 5.85205 16.3913 5.8322H16.391Z" fill="#F5A623"/>
</svg>
